<svg width="221" height="131" viewBox="0 0 221 131" fill="none" xmlns="http://www.w3.org/2000/svg">
<g filter="url(#filter0_d_46_64)">
<rect x="18" y="19" width="147" height="57" rx="28.5" fill="white"/>
</g>
<path d="M78.17 53V44.043H83.487V45.317H79.548V47.969H82.668V49.23H79.548V53H78.17ZM90.7731 53L89.9151 50.764H86.3011L85.4431 53H83.9741L87.3541 44.043H88.8491L92.2291 53H90.7731ZM88.1081 45.772L86.7691 49.529H89.4471L88.1081 45.772ZM100.338 50.634L101.404 51.479C101.006 51.999 100.503 52.4063 99.8964 52.701C99.2984 52.987 98.6397 53.13 97.9204 53.13C96.655 53.13 95.5847 52.6837 94.7094 51.791C93.834 50.8983 93.3964 49.815 93.3964 48.541C93.3964 47.267 93.834 46.1837 94.7094 45.291C95.5847 44.3897 96.655 43.939 97.9204 43.939C98.6224 43.939 99.2724 44.082 99.8704 44.368C100.468 44.654 100.971 45.0483 101.378 45.551L100.312 46.383C99.6537 45.6377 98.8564 45.265 97.9204 45.265C97.0364 45.265 96.291 45.5857 95.6844 46.227C95.0777 46.8597 94.7744 47.631 94.7744 48.541C94.7744 49.451 95.0777 50.2223 95.6844 50.855C96.291 51.4877 97.0364 51.804 97.9204 51.804C98.9257 51.804 99.7317 51.414 100.338 50.634ZM103.492 53V44.043H108.887V45.317H104.87V47.969H108.38V49.23H104.87V51.739H109.017V53H103.492ZM117.433 46.409C117.433 47.319 117.047 47.9257 116.276 48.229C116.77 48.3417 117.164 48.6103 117.459 49.035C117.762 49.4597 117.914 49.906 117.914 50.374C117.914 51.1107 117.667 51.7347 117.173 52.246C116.688 52.7487 116.038 53 115.223 53H111.518V44.043H114.95C115.713 44.043 116.315 44.2553 116.757 44.68C117.208 45.1047 117.433 45.681 117.433 46.409ZM112.909 47.722H114.898C115.245 47.722 115.513 47.6007 115.704 47.358C115.903 47.1153 116.003 46.8163 116.003 46.461C116.003 46.097 115.895 45.8153 115.678 45.616C115.47 45.408 115.18 45.304 114.807 45.304H112.909V47.722ZM115.119 48.905H112.909V51.739H115.158C115.557 51.739 115.873 51.6003 116.107 51.323C116.35 51.0457 116.471 50.725 116.471 50.361C116.471 49.997 116.345 49.6633 116.094 49.36C115.843 49.0567 115.518 48.905 115.119 48.905ZM122.073 46.24C121.466 46.8727 121.163 47.6397 121.163 48.541C121.163 49.4423 121.466 50.2093 122.073 50.842C122.679 51.466 123.425 51.778 124.309 51.778C125.193 51.778 125.938 51.466 126.545 50.842C127.16 50.2093 127.468 49.4423 127.468 48.541C127.468 47.6397 127.16 46.8727 126.545 46.24C125.938 45.6073 125.193 45.291 124.309 45.291C123.425 45.291 122.679 45.6073 122.073 46.24ZM119.785 48.541C119.785 47.2583 120.222 46.1707 121.098 45.278C121.973 44.3853 123.043 43.939 124.309 43.939C125.583 43.939 126.657 44.3853 127.533 45.278C128.417 46.1707 128.859 47.2583 128.859 48.541C128.859 49.815 128.417 50.8983 127.533 51.791C126.657 52.6837 125.583 53.13 124.309 53.13C123.043 53.13 121.973 52.6837 121.098 51.791C120.222 50.8983 119.785 49.815 119.785 48.541ZM133.019 46.24C132.412 46.8727 132.109 47.6397 132.109 48.541C132.109 49.4423 132.412 50.2093 133.019 50.842C133.625 51.466 134.371 51.778 135.255 51.778C136.139 51.778 136.884 51.466 137.491 50.842C138.106 50.2093 138.414 49.4423 138.414 48.541C138.414 47.6397 138.106 46.8727 137.491 46.24C136.884 45.6073 136.139 45.291 135.255 45.291C134.371 45.291 133.625 45.6073 133.019 46.24ZM130.731 48.541C130.731 47.2583 131.168 46.1707 132.044 45.278C132.919 44.3853 133.989 43.939 135.255 43.939C136.529 43.939 137.603 44.3853 138.479 45.278C139.363 46.1707 139.805 47.2583 139.805 48.541C139.805 49.815 139.363 50.8983 138.479 51.791C137.603 52.6837 136.529 53.13 135.255 53.13C133.989 53.13 132.919 52.6837 132.044 51.791C131.168 50.8983 130.731 49.815 130.731 48.541ZM144.563 48.502L148.788 53H146.968L143.627 49.373V53H142.236V44.043H143.627V47.683L146.37 44.043H147.995L144.563 48.502Z" fill="black"/>
<rect x="29" y="30" width="38.0792" height="38.0792" rx="19.0396" fill="#1877F2"/>
<path d="M56.1471 55.1043L57.0493 49.2422H51.4058V45.4396C51.4058 43.834 52.1927 42.2707 54.7202 42.2707H57.2875V37.279C55.781 37.0364 54.2587 36.9039 52.7328 36.8827C48.083 36.8827 45.0468 39.6908 45.0468 44.7728V49.2414H39.8799V55.1043H45.0468V69.2764C47.1538 69.6039 49.2989 69.6039 51.4058 69.2764V55.1043H56.1471Z" fill="white"/>
<defs>
<filter id="filter0_d_46_64" x="-0.586958" y="0.413042" width="221.348" height="131.348" filterUnits="userSpaceOnUse" color-interpolation-filters="sRGB">
<feFlood flood-opacity="0" result="BackgroundImageFix"/>
<feColorMatrix in="SourceAlpha" type="matrix" values="0 0 0 0 0 0 0 0 0 0 0 0 0 0 0 0 0 0 127 0" result="hardAlpha"/>
<feOffset dx="18.587" dy="18.587"/>
<feGaussianBlur stdDeviation="18.587"/>
<feColorMatrix type="matrix" values="0 0 0 0 0.827451 0 0 0 0 0.819608 0 0 0 0 0.847059 0 0 0 0.25 0"/>
<feBlend mode="normal" in2="BackgroundImageFix" result="effect1_dropShadow_46_64"/>
<feBlend mode="normal" in="SourceGraphic" in2="effect1_dropShadow_46_64" result="shape"/>
</filter>
</defs>
</svg>
