<svg width="183" height="131" viewBox="0 0 183 131" fill="none" xmlns="http://www.w3.org/2000/svg">
<g filter="url(#filter0_d_46_70)">
<rect x="19" y="19" width="147" height="57" rx="28.5" fill="white"/>
</g>
<path d="M85.268 45.2L84.254 46.097C83.6647 45.5337 82.9627 45.252 82.148 45.252C81.264 45.252 80.5143 45.5727 79.899 46.214C79.2923 46.8553 78.989 47.631 78.989 48.541C78.989 49.451 79.2923 50.2267 79.899 50.868C80.5143 51.5093 81.264 51.83 82.148 51.83C82.8933 51.83 83.5173 51.6307 84.02 51.232C84.5313 50.8247 84.8043 50.2917 84.839 49.633H82.33V48.45H86.425C86.425 50.0013 86.0437 51.1713 85.281 51.96C84.5183 52.74 83.474 53.13 82.148 53.13C80.8827 53.13 79.808 52.6837 78.924 51.791C78.0487 50.8983 77.611 49.815 77.611 48.541C77.611 47.267 78.0487 46.1837 78.924 45.291C79.7993 44.3897 80.874 43.939 82.148 43.939C83.3873 43.939 84.4273 44.3593 85.268 45.2ZM90.3625 46.24C89.7558 46.8727 89.4525 47.6397 89.4525 48.541C89.4525 49.4423 89.7558 50.2093 90.3625 50.842C90.9691 51.466 91.7145 51.778 92.5985 51.778C93.4825 51.778 94.2278 51.466 94.8345 50.842C95.4498 50.2093 95.7575 49.4423 95.7575 48.541C95.7575 47.6397 95.4498 46.8727 94.8345 46.24C94.2278 45.6073 93.4825 45.291 92.5985 45.291C91.7145 45.291 90.9691 45.6073 90.3625 46.24ZM88.0745 48.541C88.0745 47.2583 88.5121 46.1707 89.3875 45.278C90.2628 44.3853 91.3331 43.939 92.5985 43.939C93.8725 43.939 94.9471 44.3853 95.8225 45.278C96.7065 46.1707 97.1485 47.2583 97.1485 48.541C97.1485 49.815 96.7065 50.8983 95.8225 51.791C94.9471 52.6837 93.8725 53.13 92.5985 53.13C91.3331 53.13 90.2628 52.6837 89.3875 51.791C88.5121 50.8983 88.0745 49.815 88.0745 48.541ZM101.308 46.24C100.702 46.8727 100.398 47.6397 100.398 48.541C100.398 49.4423 100.702 50.2093 101.308 50.842C101.915 51.466 102.66 51.778 103.544 51.778C104.428 51.778 105.174 51.466 105.78 50.842C106.396 50.2093 106.703 49.4423 106.703 48.541C106.703 47.6397 106.396 46.8727 105.78 46.24C105.174 45.6073 104.428 45.291 103.544 45.291C102.66 45.291 101.915 45.6073 101.308 46.24ZM99.0204 48.541C99.0204 47.2583 99.458 46.1707 100.333 45.278C101.209 44.3853 102.279 43.939 103.544 43.939C104.818 43.939 105.893 44.3853 106.768 45.278C107.652 46.1707 108.094 47.2583 108.094 48.541C108.094 49.815 107.652 50.8983 106.768 51.791C105.893 52.6837 104.818 53.13 103.544 53.13C102.279 53.13 101.209 52.6837 100.333 51.791C99.458 50.8983 99.0204 49.815 99.0204 48.541ZM117.623 45.2L116.609 46.097C116.02 45.5337 115.318 45.252 114.503 45.252C113.619 45.252 112.87 45.5727 112.254 46.214C111.648 46.8553 111.344 47.631 111.344 48.541C111.344 49.451 111.648 50.2267 112.254 50.868C112.87 51.5093 113.619 51.83 114.503 51.83C115.249 51.83 115.873 51.6307 116.375 51.232C116.887 50.8247 117.16 50.2917 117.194 49.633H114.685V48.45H118.78C118.78 50.0013 118.399 51.1713 117.636 51.96C116.874 52.74 115.829 53.13 114.503 53.13C113.238 53.13 112.163 52.6837 111.279 51.791C110.404 50.8983 109.966 49.815 109.966 48.541C109.966 47.267 110.404 46.1837 111.279 45.291C112.155 44.3897 113.229 43.939 114.503 43.939C115.743 43.939 116.783 44.3593 117.623 45.2ZM120.989 53V44.043H122.367V51.739H125.955V53H120.989ZM128.126 53V44.043H133.521V45.317H129.504V47.969H133.014V49.23H129.504V51.739H133.651V53H128.126Z" fill="black"/>
<path d="M47.8962 38.8406C50.0603 38.8073 52.1532 39.6135 53.7356 41.0901L57.998 36.9222C55.2634 34.3597 51.6434 32.9547 47.8962 33.0011C45.0964 33.0005 42.3515 33.7787 39.9687 35.2488C37.5859 36.7188 35.6589 38.8228 34.4034 41.3253L39.2873 45.1171C39.8845 43.3013 41.0366 41.7188 42.5811 40.5927C44.1257 39.4666 45.9848 38.8537 47.8962 38.8406Z" fill="#EA4335"/>
<path d="M62.3955 48.4401C62.4133 47.4019 62.306 46.3653 62.076 45.3527H47.8964V50.9583H56.2206C56.0627 51.9411 55.7076 52.8818 55.1768 53.7239C54.646 54.5659 53.9503 55.2919 53.1317 55.8582L57.8979 59.5497C59.3833 58.1156 60.5515 56.3859 61.3269 54.4723C62.1024 52.5587 62.4679 50.5037 62.3999 48.4401H62.3955Z" fill="#4285F4"/>
<path d="M39.3048 51.0914C38.9746 50.1299 38.8044 49.1207 38.8009 48.1041C38.8069 47.0891 38.971 46.0813 39.2874 45.1169L34.4035 41.3251C33.3442 43.4281 32.7925 45.7501 32.7925 48.1048C32.7925 50.4596 33.3442 52.7816 34.4035 54.8846L39.3048 51.0914Z" fill="#FBBC05"/>
<path d="M47.8965 63.2076C51.5754 63.3116 55.1544 62.0025 57.898 59.5494L53.1318 55.8578C51.5864 56.8938 49.7562 57.4218 47.8965 57.3681C45.9867 57.3568 44.1289 56.7443 42.5868 55.6177C41.0447 54.4911 39.8964 52.9075 39.305 51.0916L34.4211 54.8848C35.6733 57.3862 37.597 59.4897 39.977 60.9596C42.357 62.4296 45.0991 63.208 47.8965 63.2076Z" fill="#34A853"/>
<defs>
<filter id="filter0_d_46_70" x="0.413042" y="0.413042" width="221.348" height="131.348" filterUnits="userSpaceOnUse" color-interpolation-filters="sRGB">
<feFlood flood-opacity="0" result="BackgroundImageFix"/>
<feColorMatrix in="SourceAlpha" type="matrix" values="0 0 0 0 0 0 0 0 0 0 0 0 0 0 0 0 0 0 127 0" result="hardAlpha"/>
<feOffset dx="18.587" dy="18.587"/>
<feGaussianBlur stdDeviation="18.587"/>
<feColorMatrix type="matrix" values="0 0 0 0 0.827451 0 0 0 0 0.819608 0 0 0 0 0.847059 0 0 0 0.25 0"/>
<feBlend mode="normal" in2="BackgroundImageFix" result="effect1_dropShadow_46_70"/>
<feBlend mode="normal" in="SourceGraphic" in2="effect1_dropShadow_46_70" result="shape"/>
</filter>
</defs>
</svg>
